<svg width="1919" height="388" viewBox="0 0 1919 388" fill="none" xmlns="http://www.w3.org/2000/svg">
<path fill-rule="evenodd" clip-rule="evenodd" d="M124.061 276.605C76.2471 235.977 82.1387 188.011 124.94 137.639C167.741 87.2668 293.072 84.5279 340.889 125.158C388.705 165.788 335.104 256.668 292.303 307.04C249.502 357.412 171.878 317.235 124.061 276.605Z" fill="#0CA64E"/>
<path d="M1449.63 73.7377C1449.23 73.7377 1448.83 73.7697 1448.42 73.8351C1443.84 74.5684 1439.7 79.1044 1440.71 85.4284C1441.72 91.7511 1447.62 95.3204 1452.25 94.5831C1454.45 94.2284 1456.1 93.0831 1457.15 91.1684C1458.3 89.0937 1458.65 86.2057 1458.14 83.0431C1457.64 79.9364 1456.34 77.3097 1454.46 75.6391C1453.05 74.3844 1451.4 73.7377 1449.63 73.7377ZM1450.91 101.247C1442.94 101.247 1435.59 94.9497 1434.23 86.4657C1432.75 77.1684 1438.52 68.7737 1447.38 67.3551C1451.57 66.6897 1455.62 67.8897 1458.82 70.7364C1461.83 73.4084 1463.89 77.4124 1464.62 82.0031C1465.37 86.6711 1464.77 90.9337 1462.9 94.3297C1460.88 98.0044 1457.47 100.392 1453.29 101.059C1452.49 101.187 1451.7 101.247 1450.91 101.247" fill="black"/>
<path fill-rule="evenodd" clip-rule="evenodd" d="M1772.47 360.283C1691.63 375.069 1628.5 326.266 1577.56 233.311C1535.18 155.969 1600.14 61.2128 1663.92 16.3668C1735.55 -33.9803 1836.08 39.7539 1884.65 179.812C1913.55 263.138 1859.22 344.416 1772.47 360.283Z" fill="#E84A51"/>
<path fill-rule="evenodd" clip-rule="evenodd" d="M1593.9 335.888C1576.62 352.684 1557.05 360.828 1540.15 348.65C1523.24 336.472 1520.68 316.905 1536.65 298.855C1552.23 281.255 1574.27 265.661 1591.17 277.839C1608.07 290.017 1612 318.298 1593.9 335.888Z" fill="#FBF5AF"/>
<path fill-rule="evenodd" clip-rule="evenodd" d="M379.877 2.25282C401.422 3.55954 419.57 24.9563 418.263 46.5017C416.956 68.0459 400.076 81.893 378.531 80.5863C356.986 79.2796 337.942 63.2318 340.241 41.7697C342.449 21.1556 358.331 0.946092 379.877 2.25282Z" fill="#28ABE2"/>
</svg>
